<?xml version="1.0" encoding="UTF-8" standalone="no"?>
<!-- Created with Inkscape (http://www.inkscape.org/) -->

<svg
   xmlns:dc="http://purl.org/dc/elements/1.1/"
   xmlns:cc="http://creativecommons.org/ns#"
   xmlns:rdf="http://www.w3.org/1999/02/22-rdf-syntax-ns#"
   xmlns:svg="http://www.w3.org/2000/svg"
   xmlns="http://www.w3.org/2000/svg"
   xmlns:sodipodi="http://sodipodi.sourceforge.net/DTD/sodipodi-0.dtd"
   xmlns:inkscape="http://www.inkscape.org/namespaces/inkscape"
   width="32"
   height="32"
   viewBox="0 0 8.4666665 8.4666669"
   version="1.1"
   id="svg8"
   inkscape:version="0.92.4 (5da689c313, 2019-01-14)"
   sodipodi:docname="24. Calculator business, finance, accounting, calculate, mathematics, tax.svg">
  <defs
     id="defs2">
    <pattern
       y="0"
       x="0"
       height="6"
       width="6"
       patternUnits="userSpaceOnUse"
       id="EMFhbasepattern" />
    <pattern
       y="0"
       x="0"
       height="6"
       width="6"
       patternUnits="userSpaceOnUse"
       id="EMFhbasepattern-3" />
    <pattern
       y="0"
       x="0"
       height="6"
       width="6"
       patternUnits="userSpaceOnUse"
       id="EMFhbasepattern-2" />
    <pattern
       y="0"
       x="0"
       height="6"
       width="6"
       patternUnits="userSpaceOnUse"
       id="EMFhbasepattern-1" />
    <pattern
       y="0"
       x="0"
       height="6"
       width="6"
       patternUnits="userSpaceOnUse"
       id="EMFhbasepattern-5" />
  </defs>
  <sodipodi:namedview
     id="base"
     pagecolor="#ffffff"
     bordercolor="#666666"
     borderopacity="1.0"
     inkscape:pageopacity="0.0"
     inkscape:pageshadow="2"
     inkscape:zoom="5.656854"
     inkscape:cx="-11.567558"
     inkscape:cy="0.58073762"
     inkscape:document-units="px"
     inkscape:current-layer="layer1"
     showgrid="false"
     units="px"
     inkscape:window-width="1280"
     inkscape:window-height="658"
     inkscape:window-x="-8"
     inkscape:window-y="-8"
     inkscape:window-maximized="1"
     showguides="true"
     guidecolor="#af0000"
     guideopacity="0.49803922"
     guidehicolor="#ff4b4b"
     guidehiopacity="0.49803922"
     inkscape:snap-global="false">
    <inkscape:grid
       type="xygrid"
       id="grid815"
       empspacing="1"
       originx="0"
       originy="0"
       spacingx="0"
       spacingy="0"
       snapvisiblegridlinesonly="true"
       visible="true"
       enabled="true"
       dotted="false" />
  </sodipodi:namedview>
  <metadata
     id="metadata5">
    <rdf:RDF>
      <cc:Work
         rdf:about="">
        <dc:format>image/svg+xml</dc:format>
        <dc:type
           rdf:resource="http://purl.org/dc/dcmitype/StillImage" />
        <dc:title />
      </cc:Work>
    </rdf:RDF>
  </metadata>
  <g
     inkscape:label="Guides"
     inkscape:groupmode="layer"
     id="layer1"
     transform="translate(0,-288.53332)">
    <path
       style="color:#000000;font-style:normal;font-variant:normal;font-weight:normal;font-stretch:normal;font-size:medium;line-height:normal;font-family:sans-serif;font-variant-ligatures:normal;font-variant-position:normal;font-variant-caps:normal;font-variant-numeric:normal;font-variant-alternates:normal;font-feature-settings:normal;text-indent:0;text-align:start;text-decoration:none;text-decoration-line:none;text-decoration-style:solid;text-decoration-color:#000000;letter-spacing:normal;word-spacing:normal;text-transform:none;writing-mode:lr-tb;direction:ltr;text-orientation:mixed;dominant-baseline:auto;baseline-shift:baseline;text-anchor:start;white-space:normal;shape-padding:0;clip-rule:nonzero;display:inline;overflow:visible;visibility:visible;opacity:1;isolation:auto;mix-blend-mode:normal;color-interpolation:sRGB;color-interpolation-filters:linearRGB;solid-color:#000000;solid-opacity:1;vector-effect:none;fill:#000000;fill-opacity:1;fill-rule:nonzero;stroke:none;stroke-width:0.26458335;stroke-linecap:round;stroke-linejoin:miter;stroke-miterlimit:4;stroke-dasharray:none;stroke-dashoffset:1.79999995;stroke-opacity:1;paint-order:normal;color-rendering:auto;image-rendering:auto;shape-rendering:auto;text-rendering:auto;enable-background:accumulate"
       d="m 1.1906249,289.06248 v 0.2068 7.20154 h 6.0854168 v -7.40834 z m 0.4167871,0.41118 h 5.2493959 v 6.58357 H 1.607412 Z m 0.3482743,0.32507 v 0.20357 1.52963 h 4.55611 v -1.7332 z m 0.4159711,0.41037 h 3.7209051 v 0.90924 H 2.3716574 Z m 1.259333,1.80079 c -0.1319245,-1.4e-4 -0.2597251,0.0766 -0.3140176,0.20197 -0.072384,0.16718 0.00886,0.36768 0.1786233,0.44013 0.1698415,0.0722 0.3721345,-0.008 0.4445184,-0.17461 0.072391,-0.16721 -0.00885,-0.36848 -0.1786233,-0.44094 -0.042458,-0.0181 -0.086526,-0.0265 -0.1305008,-0.0265 z m 2.2454297,0 c -0.1319294,-1.4e-4 -0.258914,0.0766 -0.3132019,0.20197 -0.072391,0.16721 0.00802,0.36768 0.1778077,0.44013 0.1698268,0.0722 0.3721282,-0.008 0.4445183,-0.17542 0.072384,-0.16718 -0.00805,-0.3677 -0.1778072,-0.44013 -0.042461,-0.0181 -0.08734,-0.0265 -0.1313169,-0.0265 z m -3.4093338,8.2e-4 c -0.1319269,-1.4e-4 -0.2589095,0.0766 -0.313202,0.20197 -0.072384,0.1672 0.00803,0.36769 0.1778073,0.44014 0.1698273,0.0722 0.3721349,-0.008 0.4445184,-0.17461 0.072391,-0.1672 -0.00806,-0.36769 -0.1778073,-0.44014 -0.042462,-0.0181 -0.087341,-0.0272 -0.1313164,-0.0274 z m 2.2625582,8.3e-4 c -0.131927,-1.4e-4 -0.2589095,0.0758 -0.313202,0.20116 -0.072384,0.16719 0.00803,0.36848 0.1778072,0.44093 0.1698269,0.0722 0.3721345,-0.008 0.4445184,-0.17541 0.072391,-0.16721 -0.00806,-0.36767 -0.1778072,-0.44013 -0.042462,-0.0181 -0.087341,-0.0265 -0.1313164,-0.0266 z m -1.1312793,0.2623 c 0.019201,-0.008 0.041242,-0.008 0.060357,8.3e-4 0.038231,0.0163 0.056627,0.0632 0.040783,0.0998 -0.01584,0.0366 -0.064528,0.059 -0.1027695,0.0427 -0.038215,-0.0163 -0.057437,-0.0673 -0.041597,-0.10386 0.00792,-0.0184 0.024025,-0.0324 0.043228,-0.0394 z m 2.2462457,0 c 0.019201,-0.008 0.041234,-0.008 0.060357,8.3e-4 0.038232,0.0163 0.059067,0.064 0.043229,0.10058 -0.015844,0.0366 -0.066967,0.0581 -0.1052166,0.0419 -0.038223,-0.0163 -0.058259,-0.0673 -0.042413,-0.10386 0.00792,-0.0184 0.024843,-0.0324 0.044044,-0.0394 z m -3.4101498,8.3e-4 c 0.019201,-0.008 0.041234,-0.008 0.060356,8.2e-4 0.038232,0.0164 0.059074,0.0648 0.043229,0.10137 -0.01584,0.0366 -0.066157,0.0573 -0.1044007,0.0411 -0.038232,-0.0163 -0.058253,-0.0673 -0.042413,-0.10386 0.00792,-0.0184 0.024029,-0.0324 0.043229,-0.0394 z m 2.2625582,8.2e-4 c 0.019201,-0.008 0.041234,-0.008 0.060357,0 0.038232,0.0164 0.056627,0.064 0.040783,0.10059 -0.01584,0.0366 -0.062888,0.0557 -0.101138,0.0394 -0.038223,-0.0163 -0.059067,-0.0649 -0.043228,-0.10136 0.00792,-0.0184 0.024029,-0.0315 0.043228,-0.0386 z m -2.2307486,0.68234 c -0.1319236,-1.4e-4 -0.2597296,0.0766 -0.3140175,0.20196 -0.072391,0.1672 0.00886,0.36769 0.1786228,0.44014 0.1698415,0.0722 0.3721286,-0.008 0.4445184,-0.1746 0.072384,-0.16718 -0.00885,-0.36769 -0.1786229,-0.44014 -0.042457,-0.0181 -0.086526,-0.0272 -0.1305008,-0.0274 z m 2.2625582,8.3e-4 c -0.1319236,-1.4e-4 -0.2597297,0.0758 -0.314018,0.20116 -0.072391,0.16721 0.00886,0.3685 0.1786233,0.44093 0.1698269,0.0722 0.3721282,-0.008 0.4445184,-0.1754 0.072384,-0.1672 -0.00886,-0.36771 -0.1786229,-0.44014 -0.042457,-0.0181 -0.086526,-0.0265 -0.1305008,-0.0265 z m -1.1002853,0.002 c -0.1319298,-1.4e-4 -0.2597296,0.0758 -0.3140175,0.20116 -0.072391,0.16721 0.00884,0.36849 0.1786228,0.44094 0.1698273,0.0722 0.3721283,-0.008 0.4445184,-0.17542 0.072384,-0.16718 -0.00886,-0.3677 -0.1786228,-0.44013 -0.04246,-0.0181 -0.086524,-0.0265 -0.1305009,-0.0265 z m 2.2462454,0 c -0.131131,2.8e-4 -0.2564669,0.0777 -0.3107548,0.20276 -0.072391,0.16721 0.00478,0.36607 0.1745445,0.43853 l 0.00326,0.002 c 0.1698478,0.0722 0.3688659,-0.009 0.4412561,-0.17621 0.072384,-0.1672 -0.00558,-0.36688 -0.1753606,-0.43933 l -0.00246,-8.3e-4 c -0.04246,-0.0181 -0.08679,-0.0266 -0.1305008,-0.0266 z m -2.2168829,0.26151 c 0.038211,0.0163 0.057437,0.0673 0.041597,0.10386 -0.015844,0.0366 -0.065356,0.0548 -0.1035851,0.0386 -0.038232,-0.0164 -0.056627,-0.0632 -0.040783,-0.0998 0.01584,-0.0366 0.064521,-0.059 0.102769,-0.0427 z m 2.2454302,0 0.00326,8.2e-4 c 0.038232,0.0163 0.05499,0.0663 0.03915,0.10293 -0.015844,0.0366 -0.062895,0.0557 -0.101138,0.0394 l -0.00246,-8.3e-4 c -0.038232,-0.0163 -0.056627,-0.064 -0.040783,-0.10058 0.01584,-0.0366 0.063712,-0.0582 0.1019539,-0.0419 z m -3.4680596,8.2e-4 c 0.018496,-0.008 0.039605,-0.008 0.058725,0 0.038232,0.0163 0.059073,0.0648 0.043229,0.10137 -0.015844,0.0366 -0.066973,0.0571 -0.1052162,0.0409 -0.038232,-0.0163 -0.054995,-0.0663 -0.03915,-0.10292 0.00792,-0.0184 0.02392,-0.0321 0.042412,-0.0394 z m 2.2625581,8.1e-4 c 0.018496,-0.008 0.039606,-0.008 0.058725,0 0.037877,0.0165 0.058989,0.0641 0.043229,0.10059 -0.015844,0.0366 -0.066973,0.0581 -0.1052167,0.0419 -0.038232,-0.0163 -0.054995,-0.0663 -0.03915,-0.10293 0.00792,-0.0184 0.023916,-0.0321 0.042413,-0.0394 z m -1.0668444,0.71453 c -0.1319245,-1.3e-4 -0.2597251,0.0766 -0.3140176,0.20197 -0.072384,0.16718 0.00886,0.36769 0.1786233,0.44014 0.1698415,0.0722 0.3713189,-0.008 0.4437028,-0.17461 0.072391,-0.16722 -0.00804,-0.36768 -0.1778077,-0.44014 -0.042458,-0.0181 -0.086526,-0.0273 -0.1305008,-0.0274 z m 2.2454297,0 c -0.1319294,-1.4e-4 -0.2589136,0.0766 -0.3132019,0.20197 -0.072391,0.16721 0.00802,0.36769 0.1778077,0.44014 0.1698268,0.0722 0.3721282,-0.008 0.4445183,-0.17461 0.072384,-0.16719 -0.00805,-0.36852 -0.1778072,-0.44095 -0.042461,-0.0181 -0.08734,-0.0265 -0.1313169,-0.0266 z m -3.4093338,0.002 c -0.1319299,-1.3e-4 -0.2589095,0.0758 -0.313202,0.20116 -0.072384,0.16719 0.00803,0.36768 0.1778073,0.44013 0.1698273,0.0722 0.3721349,-0.008 0.4445184,-0.17459 0.072391,-0.1672 -0.00885,-0.3677 -0.1786229,-0.44014 -0.04246,-0.0181 -0.086524,-0.0265 -0.1305008,-0.0266 z m 2.2625582,0 c -0.1319299,-1.3e-4 -0.2597251,0.0766 -0.3140176,0.20196 -0.072384,0.16719 0.00885,0.36769 0.1786228,0.44014 0.1698269,0.0722 0.3721345,-0.008 0.4445184,-0.1754 0.072391,-0.16722 -0.00885,-0.36769 -0.1786228,-0.44014 -0.042461,-0.0181 -0.086524,-0.0265 -0.1305008,-0.0266 z m 0.029362,0.26151 c 0.038211,0.0163 0.054981,0.0663 0.03915,0.10292 -0.015852,0.0366 -0.062909,0.0557 -0.1011379,0.0394 -0.038232,-0.0163 -0.059067,-0.064 -0.043228,-0.10058 0.015844,-0.0366 0.066967,-0.0581 0.1052162,-0.0419 z m -1.1606418,8.2e-4 c 0.019201,-0.008 0.041234,-0.008 0.060357,8.3e-4 0.038232,0.0164 0.056627,0.0632 0.040783,0.0998 -0.01584,0.0366 -0.064526,0.059 -0.1027696,0.0427 -0.038232,-0.0163 -0.057437,-0.0673 -0.041597,-0.10386 0.00792,-0.0184 0.024029,-0.0322 0.043228,-0.0394 z m 2.2462458,0 c 0.019205,-0.008 0.041234,-0.008 0.060357,8.3e-4 0.038215,0.0164 0.059067,0.0648 0.043229,0.10136 -0.015844,0.0366 -0.066988,0.0573 -0.1052167,0.0411 -0.038232,-0.0163 -0.058259,-0.0673 -0.042413,-0.10386 0.00792,-0.0184 0.024839,-0.0324 0.044044,-0.0394 z m -3.4101498,0.002 c 0.019201,-0.008 0.041234,-0.008 0.060356,0 0.038232,0.0163 0.059074,0.0648 0.043228,0.10137 -0.01584,0.0366 -0.065342,0.0548 -0.103585,0.0386 -0.038232,-0.0163 -0.059067,-0.0648 -0.043229,-0.10136 0.00792,-0.0184 0.024029,-0.0315 0.043229,-0.0386 z m 1.1965292,0.7789 c -0.1319231,-1.4e-4 -0.258914,0.0758 -0.3132019,0.20115 -0.072391,0.1672 0.00806,0.36768 0.1778076,0.44014 0.1698478,0.0722 0.3696815,-0.008 0.4420713,-0.1754 0.072384,-0.1672 -0.00558,-0.3669 -0.1753606,-0.43935 -0.042456,-0.0181 -0.087341,-0.0265 -0.1313164,-0.0265 z m 1.0970225,0 c -0.1311305,2.9e-4 -0.2572824,0.0777 -0.3115704,0.20277 -0.072391,0.16722 0.00558,0.36688 0.1753606,0.43933 l 0.00326,8.3e-4 c 0.1698269,0.0722 0.3688659,-0.009 0.4412561,-0.17622 0.072384,-0.16718 -0.0056,-0.36689 -0.1753606,-0.43934 l -0.00246,-8.3e-4 c -0.04246,-0.0181 -0.08679,-0.0266 -0.1305009,-0.0265 z m 1.1492233,0 c -0.1319311,-1.4e-4 -0.2589095,0.0758 -0.313202,0.20115 -0.072384,0.1672 0.00803,0.36769 0.1778073,0.44014 0.1698269,0.0722 0.3721345,-0.008 0.4445184,-0.17461 0.072391,-0.1672 -0.00806,-0.36769 -0.1778073,-0.44014 -0.042462,-0.0181 -0.087339,-0.0265 -0.1313164,-0.0265 z m -3.4093343,8.2e-4 c -0.1319256,-1.4e-4 -0.2597296,0.0758 -0.3140175,0.20116 -0.072384,0.16718 0.00885,0.3685 0.1786228,0.44095 0.1698273,0.0722 0.3688722,-0.009 0.4412561,-0.17622 0.072384,-0.16719 -0.0056,-0.36691 -0.1753605,-0.43934 -0.04246,-0.0181 -0.086526,-0.0265 -0.1305009,-0.0265 z m 2.2886584,0.2607 0.00326,8.3e-4 c 0.038232,0.0163 0.054995,0.0663 0.03915,0.10292 -0.015844,0.0366 -0.062895,0.0565 -0.1011379,0.0402 l -0.00326,-0.002 c -0.038232,-0.0164 -0.05581,-0.0632 -0.039965,-0.0998 0.015844,-0.0366 0.063712,-0.059 0.1019539,-0.0427 z m -2.2592955,8.3e-4 c 0.038232,0.0163 0.054995,0.0663 0.03915,0.10292 -0.015844,0.0366 -0.062895,0.0557 -0.1011384,0.0394 -0.038232,-0.0163 -0.059073,-0.0648 -0.043228,-0.10136 0.015844,-0.0366 0.066973,-0.0572 0.1052164,-0.041 z m 3.3473462,8.2e-4 c 0.019201,-0.008 0.041234,-0.008 0.060357,8.3e-4 0.038232,0.0163 0.056627,0.064 0.040783,0.10059 -0.01584,0.0366 -0.063711,0.0582 -0.1019535,0.0419 -0.038232,-0.0163 -0.058253,-0.0673 -0.042413,-0.10386 0.00792,-0.0182 0.024029,-0.0324 0.043229,-0.0394 z m -2.2454298,8.3e-4 c 0.019201,-0.008 0.041242,-0.008 0.060357,0 0.038232,0.0163 0.055804,0.064 0.039964,0.10059 -0.015844,0.0366 -0.063711,0.0582 -0.1019539,0.0419 -0.038215,-0.0163 -0.058258,-0.0673 -0.042413,-0.10386 0.00792,-0.0182 0.024839,-0.0315 0.044044,-0.0386 z"
       id="rect1041-3"
       inkscape:connector-curvature="0" />
  </g>
</svg>
